<svg preserveAspectRatio="none" overflow="visible" style="display: block;" width="28" height="28" viewBox="0 0 28 28" fill="none" xmlns="http://www.w3.org/2000/svg">
<g id="Frame">
<path id="Vector" d="M14 14C16.7614 14 19 11.7614 19 9C19 6.23858 16.7614 4 14 4C11.2386 4 9 6.23858 9 9C9 11.7614 11.2386 14 14 14Z" stroke="#0B0C08" stroke-width="1.6" stroke-linecap="round" stroke-linejoin="round"/>
<path id="Vector_2" d="M5 25C5 22.6131 5.94821 20.3239 7.63604 18.636C9.32387 16.9482 11.6131 16 14 16C16.3869 16 18.6761 16.9482 20.364 18.636C22.0518 20.3239 23 22.6131 23 25" stroke="#0B0C08" stroke-width="1.6" stroke-linecap="round" stroke-linejoin="round"/>
<path id="Vector_3" d="M12 4.5C12 3.5 13 2.5 14 2.5C15 2.5 16 3.5 16 4.5" stroke="#0B0C08" stroke-width="1.6" stroke-linecap="round" stroke-linejoin="round"/>
</g>
</svg>
