<svg xmlns="http://www.w3.org/2000/svg" width="85.1" height="40.5" viewBox="37.45 3.75 85.1 40.5" fill="none"><defs>
<clipPath id="clip0_1385_86">
<rect width="84.5909" height="40" fill="white" transform="translate(37.7046 4)" />
</clipPath>
<clipPath id="clip1_1385_86">
<rect width="84.5909" height="39.9977" fill="white" transform="translate(37.7046 4.00098)" />
</clipPath>
</defs>
<g id="logo" clip-path="url(#clip0_1385_86)">
<g id="logo_2.svg" clip-path="url(#clip1_1385_86)">
<path id="Vector" d="M42.9583 34.4924C41.8196 32.2713 41.3208 31.5655 42.4877 26.681C42.7419 25.5988 43.8994 23.0107 43.8994 23.0107L46.064 18.7756L49.5462 12.2819C50.2037 10.9737 50.7697 9.62151 51.2402 8.23505C51.7202 6.81396 52.2095 4.79995 52.1813 4C51.8489 5.27809 51.4403 6.53516 50.9579 7.76449C50.2708 9.4491 49.2921 10.8608 49.0756 11.2466C48.0027 13.1195 45.0005 16.9687 43.6171 18.8697C42.2336 20.7708 39.1844 25.3635 38.6291 26.8693C35.7211 34.8123 40.0314 37.2593 46.5346 39.2921C49.6403 40.5061 58.6751 43.8095 58.6751 43.8095L50.4873 39.8568C50.4873 39.8568 44.0971 36.7134 42.9583 34.4924Z" fill="#6F6F6E" />
<path id="Vector_2" d="M80.3208 14.636C79.9135 14.6078 79.5047 14.6078 79.0974 14.636V13.6949H81.0737V13.0361H78.3445V16.9888H80.5091C80.5091 16.9888 81.469 16.7724 81.4502 15.8595C81.4314 14.9466 80.8385 14.6925 80.3208 14.636ZM80.1326 16.4242H79.0974V15.2007C79.0974 15.2007 79.9162 15.1537 80.1326 15.2007C80.3491 15.2478 80.6126 15.3701 80.6032 15.8595C80.6051 15.9943 80.5587 16.1253 80.4724 16.2289C80.386 16.3324 80.2655 16.4017 80.1326 16.4242Z" fill="#E1001A" />
<path id="Vector_3" d="M90.8616 12.9414H88.8853V16.9882H89.7323V15.3883H90.7675C90.7675 15.3883 91.8686 15.1248 91.8968 14.1649C91.9251 13.2049 90.8616 12.9414 90.8616 12.9414ZM90.6734 14.7295H89.7323V13.6002H90.6734C90.6734 13.6002 91.1628 13.7131 91.1439 14.1649C91.1251 14.6166 90.6734 14.7295 90.6734 14.7295Z" fill="#E1001A" />
<path id="Vector_4" d="M95.5677 12.9414H94.7206L93.4031 16.9882H94.156L94.4383 15.953H95.6618L95.9441 16.9882H96.8852L95.5677 12.9414ZM94.6265 15.2942L95.0971 13.8825L95.4735 15.2942H94.6265Z" fill="#E1001A" />
<path id="Vector_5" d="M108.272 12.9414H110.249C110.249 12.9414 111.312 13.2049 111.284 14.1649C111.256 15.1248 110.155 15.3883 110.155 15.3883H109.119V16.9882H108.272V12.9414ZM109.119 13.6943V14.7295H110.061C110.061 14.7295 110.512 14.6166 110.531 14.1649C110.55 13.7131 110.061 13.6002 110.061 13.6002H109.119V13.6943Z" fill="#E1001A" />
<path id="Vector_6" d="M119.472 12.9414C119.472 12.9414 118.399 13.2802 118.437 14.0708C118.475 14.8613 118.898 15.0966 119.284 15.2942C119.284 15.3036 118.249 16.9882 118.249 16.9882H119.19L120.131 15.3883H120.696V16.9882H121.543V12.9414H119.472ZM120.696 13.6943V14.6354H119.566C119.566 14.6354 119.19 14.5037 119.19 14.1649C119.19 13.8261 119.566 13.6002 119.566 13.6002H120.696V13.6943Z" fill="#E1001A" />
<path id="Vector_7" d="M115.519 13.3179L114.013 15.3883V12.9414H113.166V16.9882H114.107V16.5177L115.519 14.5413V16.9882H116.366V12.9414H115.519V13.3179Z" fill="#E1001A" />
<path id="Vector_8" d="M98.2024 12.9414V13.6002H99.2376V16.9882H100.085V13.6002H101.12V12.9414H98.2024Z" fill="#E1001A" />
<path id="Vector_9" d="M72.7917 19.999H71.9447L67.8038 29.5985H66.7686V32.8924H68.5567V31.2925H76.368V32.8924H78.1561V29.5985H77.215L72.7917 19.999ZM75.1445 29.5985H69.7801V29.4102L72.4153 23.1988L75.1445 29.4102V29.5985Z" fill="#E1001A" />
<path id="Vector_10" d="M85.3089 24.4223H80.5092V19.999H78.8152V31.2925H80.5092V26.1163H85.3089V31.2925H87.003V19.999H85.3089V24.4223Z" fill="#E1001A" />
<path id="Vector_11" d="M96.6023 19.999H94.2495L90.485 23.4812V19.999H88.791V31.2925H90.485V26.7751L94.7201 31.2925H96.9788L91.2379 25.0811L96.6023 19.999Z" fill="#E1001A" />
<path id="Vector_12" d="M102.814 19.7168C99.5389 19.7168 96.8849 22.3519 96.8849 25.5988C96.8849 28.8457 99.5389 31.4808 102.814 31.4808C106.089 31.4808 108.743 28.8457 108.743 25.5988C108.743 22.3519 106.089 19.7168 102.814 19.7168ZM102.814 29.8809C101.976 29.8809 101.158 29.6325 100.461 29.1672C99.7646 28.7018 99.2218 28.0404 98.9013 27.2666C98.5807 26.4927 98.4969 25.6412 98.6603 24.8197C98.8237 23.9981 99.227 23.2435 99.8193 22.6512C100.412 22.059 101.166 21.6556 101.988 21.4922C102.809 21.3288 103.661 21.4126 104.435 21.7332C105.208 22.0537 105.87 22.5965 106.335 23.293C106.801 23.9895 107.049 24.8083 107.049 25.6459C107.05 26.2022 106.941 26.7533 106.728 27.2674C106.516 27.7816 106.204 28.2488 105.81 28.6422C105.417 29.0356 104.95 29.3475 104.436 29.5601C103.921 29.7726 103.37 29.8817 102.814 29.8809Z" fill="#E1001A" />
<path id="Vector_13" d="M120.601 19.999H120.036L115.895 28.2809L111.755 19.999H111.19L109.59 31.2925H111.19L112.131 24.4223L115.613 31.1984H116.272L119.66 24.4223L120.601 31.2925H122.295L120.601 19.999Z" fill="#E1001A" />
<path id="Vector_14" d="M63.6208 26.1753C63.9123 24.3796 62.6929 22.6876 60.8972 22.3961C59.1016 22.1046 57.4096 23.324 57.1181 25.1197C56.8266 26.9154 58.046 28.6074 59.8417 28.8989C61.6374 29.1903 63.3294 27.9709 63.6208 26.1753Z" fill="#E1001A" />
<path id="Vector_15" d="M46.7235 20.0928H54.0642C54.189 20.0928 54.3087 20.1423 54.397 20.2306C54.4852 20.3188 54.5348 20.4385 54.5348 20.5633V21.2221C54.5348 21.3469 54.4852 21.4666 54.397 21.5549C54.3087 21.6431 54.189 21.6927 54.0642 21.6927H46.7235C46.5987 21.6927 46.479 21.6431 46.3908 21.5549C46.3025 21.4666 46.2529 21.3469 46.2529 21.2221V20.5633C46.2529 20.4385 46.3025 20.3188 46.3908 20.2306C46.479 20.1423 46.5987 20.0928 46.7235 20.0928Z" fill="#6F6F6E" />
<path id="Vector_16" d="M43.617 29.5986H54.0635C54.1883 29.5986 54.308 29.6482 54.3962 29.7365C54.4845 29.8247 54.5341 29.9444 54.5341 30.0692V30.728C54.5341 30.8528 54.4845 30.9725 54.3962 31.0607C54.308 31.149 54.1883 31.1985 54.0635 31.1985H43.617C43.4922 31.1985 43.3726 31.149 43.2843 31.0607C43.1961 30.9725 43.1465 30.8528 43.1465 30.728V30.0692C43.1465 29.9444 43.1961 29.8247 43.2843 29.7365C43.3726 29.6482 43.4922 29.5986 43.617 29.5986Z" fill="#6F6F6E" />
<path id="Vector_17" d="M45.312 33.834H50.5823C50.7071 33.834 50.8268 33.8836 50.915 33.9718C51.0033 34.0601 51.0528 34.1797 51.0528 34.3045V34.9633C51.0528 35.0881 51.0033 35.2078 50.915 35.2961C50.8268 35.3843 50.7071 35.4339 50.5823 35.4339H45.312C45.1872 35.4339 45.0675 35.3843 44.9793 35.2961C44.891 35.2078 44.8414 35.0881 44.8414 34.9633V34.3045C44.8414 34.1797 44.891 34.0601 44.9793 33.9718C45.0675 33.8836 45.1872 33.834 45.312 33.834Z" fill="#6F6F6E" />
<path id="Vector_18" d="M44.5592 24.9883H55.3821C55.5069 24.9883 55.6266 25.0379 55.7148 25.1261C55.8031 25.2144 55.8527 25.334 55.8527 25.4588V26.1176C55.8527 26.2424 55.8031 26.3621 55.7148 26.4504C55.6266 26.5386 55.5069 26.5882 55.3821 26.5882H44.5592C44.4344 26.5882 44.3147 26.5386 44.2264 26.4504C44.1382 26.3621 44.0886 26.2424 44.0886 26.1176V25.4588C44.0886 25.334 44.1382 25.2144 44.2264 25.1261C44.3147 25.0379 44.4344 24.9883 44.5592 24.9883Z" fill="#E1001A" />
<path id="Vector_19" d="M58.1575 21.9757C59.6389 21.9757 60.8397 20.7749 60.8397 19.2935C60.8397 17.8122 59.6389 16.6113 58.1575 16.6113C56.6762 16.6113 55.4753 17.8122 55.4753 19.2935C55.4753 20.7749 56.6762 21.9757 58.1575 21.9757Z" fill="#6F6F6E" />
<path id="Vector_20" d="M58.5347 34.7746C60.0161 34.7746 61.2169 33.5737 61.2169 32.0924C61.2169 30.611 60.0161 29.4102 58.5347 29.4102C57.0534 29.4102 55.8525 30.611 55.8525 32.0924C55.8525 33.5737 57.0534 34.7746 58.5347 34.7746Z" fill="#6F6F6E" />
<path id="Vector_21" d="M54.7694 37.3158C55.731 37.3158 56.5105 36.5573 56.5105 35.6218C56.5105 34.6862 55.731 33.9277 54.7694 33.9277C53.8078 33.9277 53.0283 34.6862 53.0283 35.6218C53.0283 36.5573 53.8078 37.3158 54.7694 37.3158Z" fill="#6F6F6E" />
<path id="Vector_22" d="M51.6169 39.3875C52.3965 39.3875 53.0286 38.7765 53.0286 38.0228C53.0286 37.2692 52.3965 36.6582 51.6169 36.6582C50.8372 36.6582 50.2052 37.2692 50.2052 38.0228C50.2052 38.7765 50.8372 39.3875 51.6169 39.3875Z" fill="#6F6F6E" />
<path id="Vector_23" d="M54.7694 16.9876C55.731 16.9876 56.5105 16.2292 56.5105 15.2936C56.5105 14.358 55.731 13.5996 54.7694 13.5996C53.8078 13.5996 53.0283 14.358 53.0283 15.2936C53.0283 16.2292 53.8078 16.9876 54.7694 16.9876Z" fill="#6F6F6E" />
<path id="Vector_24" d="M51.7112 13.9773C52.4909 13.9773 53.1229 13.3663 53.1229 12.6127C53.1229 11.859 52.4909 11.248 51.7112 11.248C50.9316 11.248 50.2996 11.859 50.2996 12.6127C50.2996 13.3663 50.9316 13.9773 51.7112 13.9773Z" fill="#6F6F6E" />
<path id="Vector_25" d="M47.2882 42.5871C47.8599 42.5871 48.3234 42.1236 48.3234 41.5518C48.3234 40.9801 47.8599 40.5166 47.2882 40.5166C46.7164 40.5166 46.2529 40.9801 46.2529 41.5518C46.2529 42.1236 46.7164 42.5871 47.2882 42.5871Z" fill="#6F6F6E" />
<path id="Vector_26" d="M47.8529 10.3998C48.3726 10.3998 48.794 9.97847 48.794 9.4587C48.794 8.93893 48.3726 8.51758 47.8529 8.51758C47.3331 8.51758 46.9117 8.93893 46.9117 9.4587C46.9117 9.97847 47.3331 10.3998 47.8529 10.3998Z" fill="#6F6F6E" />
<path id="Vector_27" d="M45.6413 8.32965C46.0311 8.32965 46.3471 8.01364 46.3471 7.62381C46.3471 7.23398 46.0311 6.91797 45.6413 6.91797C45.2514 6.91797 44.9354 7.23398 44.9354 7.62381C44.9354 8.01364 45.2514 8.32965 45.6413 8.32965Z" fill="#6F6F6E" />
<path id="Vector_28" d="M43.5231 6.73018C43.7829 6.73018 43.9936 6.51951 43.9936 6.25962C43.9936 5.99974 43.7829 5.78906 43.5231 5.78906C43.2632 5.78906 43.0525 5.99974 43.0525 6.25962C43.0525 6.51951 43.2632 6.73018 43.5231 6.73018Z" fill="#6F6F6E" />
<path id="Vector_29" d="M44.7001 43.9986C45.0899 43.9986 45.4059 43.6826 45.4059 43.2928C45.4059 42.9029 45.0899 42.5869 44.7001 42.5869C44.3103 42.5869 43.9943 42.9029 43.9943 43.2928C43.9943 43.6826 44.3103 43.9986 44.7001 43.9986Z" fill="#6F6F6E" />
<path id="Vector_30" d="M75.1452 13.0361H74.2982L73.0747 16.9888H73.7335L74.1099 16.0477H75.3334L75.6157 16.9888H76.4627L75.1452 13.0361ZM74.2982 15.3889L74.7687 13.8831L75.1452 15.3889H74.2982Z" fill="#E1001A" />
<path id="Vector_31" d="M68.5577 15.5768C68.4165 16.4615 67.8989 16.4238 67.8989 16.4238V16.9885C67.8989 16.9791 68.0213 16.9885 68.3695 16.9885C68.5429 16.9266 68.7005 16.827 68.8307 16.6968C68.9609 16.5666 69.0605 16.409 69.1224 16.2356C69.3473 15.6333 69.3106 13.6946 69.3106 13.6946H70.44V16.9885H71.1929V13.1299H68.6518C68.6518 13.1299 68.633 14.8013 68.5577 15.5768Z" fill="#E1001A" />
<path id="Vector_32" d="M104.556 12.9414C103.595 12.9414 102.814 13.8694 102.814 15.0119C102.814 16.1544 103.595 17.0823 104.556 17.0823C105.518 17.0823 106.298 16.1553 106.298 15.0119C106.298 13.8684 105.518 12.9414 104.556 12.9414ZM104.556 16.4301C104.017 16.4301 103.581 15.7958 103.581 15.0185C103.581 14.2411 104.017 13.6002 104.556 13.6002C105.096 13.6002 105.532 14.2345 105.532 15.0175C105.532 15.8005 105.092 16.4301 104.556 16.4301Z" fill="#E1001A" />
<path id="Vector_33" d="M84.981 12.9873C84.0192 12.9873 83.239 13.9153 83.239 15.0578C83.239 16.2003 84.0192 17.1282 84.981 17.1282C85.9429 17.1282 86.7231 16.2003 86.7231 15.0578C86.7231 13.9153 85.9429 12.9873 84.981 12.9873ZM84.981 16.476C84.4418 16.476 84.0051 15.8417 84.0051 15.0597C84.0051 14.2776 84.4418 13.648 84.981 13.648C85.5203 13.648 85.957 14.2823 85.957 15.0597C85.957 15.837 85.5165 16.476 84.981 16.476Z" fill="#E1001A" />
</g>
</g>
</svg>